<svg width="164" height="164" viewBox="0 0 164 164" fill="none" xmlns="http://www.w3.org/2000/svg">
<rect width="164" height="164" rx="82" fill="#E0FFE5"/>
<g clip-path="url(#clip0_15_8)">
<path d="M82 136C111.823 136 136 111.823 136 82C136 52.1766 111.823 28 82 28C52.1766 28 28 52.1766 28 82C28 111.823 52.1766 136 82 136Z" fill="#32BA7C"/>
<path d="M68.202 106.36L95.9686 134.126C118.965 127.994 136 107.041 136 82C136 81.489 136 80.9779 136 80.4669L114.196 60.3659L68.202 106.36Z" fill="#0AA06E"/>
<path d="M83.3626 94.0947C85.7475 96.4796 85.7475 100.568 83.3626 102.953L78.4226 107.893C76.0377 110.278 71.9494 110.278 69.5645 107.893L47.9305 86.0884C45.5456 83.7036 45.5456 79.6152 47.9305 77.2304L52.8705 72.2903C55.2554 69.9055 59.3437 69.9055 61.7286 72.2903L83.3626 94.0947Z" fill="white"/>
<path d="M102.271 56.448C104.656 54.0631 108.744 54.0631 111.129 56.448L116.069 61.3881C118.454 63.7729 118.454 67.8613 116.069 70.2461L78.5928 107.552C76.2079 109.937 72.1196 109.937 69.7347 107.552L64.7947 102.612C62.4098 100.227 62.4098 96.1389 64.7947 93.754L102.271 56.448Z" fill="white"/>
</g>
<defs>
<clipPath id="clip0_15_8">
<rect width="108" height="108" fill="white" transform="translate(28 28)"/>
</clipPath>
</defs>
</svg>
